<svg xmlns="http://www.w3.org/2000/svg">
  <symbol id="accomodation" viewBox="0 0 24 24">
    <path d="M21.153,10.995l-8.499-7.741c-0.375-0.339-0.936-0.339-1.308,0l-8.497,7.742c-0.299,0.272-0.398,0.691-0.252,1.068
		c0.148,0.377,0.503,0.622,0.905,0.622H4.86v7.757C4.86,20.749,5.109,21,5.416,21h4.657c0.308,0,0.557-0.251,0.557-0.557V15.73
		h2.736v4.713c0,0.306,0.25,0.557,0.56,0.557h4.655c0.309,0,0.557-0.251,0.557-0.557v-7.757h1.358c0.405,0,0.759-0.244,0.906-0.622
		C21.549,11.688,21.451,11.269,21.153,10.995z"/>
	<path d="M18.994,4.11h-3.739l4.296,3.906v-3.35C19.551,4.36,19.302,4.11,18.994,4.11z"/>
  </symbol>
  <symbol id="rentcar" viewBox="0 0 24 24">
    <path d="M20.492,9.708L19.09,5.032c-0.32-1.065-1.282-1.782-2.394-1.782H7.306c-1.112,0-2.074,0.717-2.395,1.782L3.508,9.708
		C2.622,10.092,2,10.975,2,12v5c0,0.69,0.56,1.25,1.25,1.25l0,0v1.25c0,0.69,0.559,1.25,1.25,1.25h1.25C6.441,20.75,7,20.19,7,19.5
		v-1.25h10v1.25c0,0.69,0.559,1.25,1.25,1.25h1.25c0.691,0,1.25-0.56,1.25-1.25v-1.25l0,0l0,0c0.69,0,1.25-0.56,1.25-1.25v-5
		C22,10.975,21.379,10.092,20.492,9.708L20.492,9.708z M7.306,5.75h9.391L17.82,9.5H6.18L7.306,5.75L7.306,5.75z M7,15.125
		c-0.691,0-1.25-0.56-1.25-1.25s0.559-1.25,1.25-1.25c0.69,0,1.25,0.56,1.25,1.25S7.69,15.125,7,15.125z M17,15.125
		c-0.691,0-1.25-0.56-1.25-1.25s0.559-1.25,1.25-1.25c0.69,0,1.25,0.56,1.25,1.25S17.69,15.125,17,15.125z"/>
  </symbol>
  <symbol id="restaurant" viewBox="0 0 24 24">
	<path d="M8.51,13.246l-5.042,5.042c-0.616,0.617-0.616,1.621,0,2.237c0.587,0.588,1.601,0.639,2.238,0l5.042-5.041L8.51,13.246z
		 M20.532,18.305l-7.06-7.059L5.228,3H4.582l-0.13,0.335C4.104,4.218,3.956,5.12,4.021,5.945C4.099,6.886,4.456,7.7,5.056,8.3
		l6.438,6.438l0.85-0.85l5.95,6.654c0.593,0.592,1.61,0.627,2.239,0C21.148,19.926,21.148,18.922,20.532,18.305z M20.234,5.998
		l-2.858,2.859l-0.747-0.746l2.861-2.86l-0.747-0.745l-2.859,2.859l-0.747-0.746l2.86-2.86l-0.746-0.746l-3.729,3.73
		C13.063,7.2,12.793,7.807,12.754,8.45c-0.01,0.163-0.047,0.323-0.107,0.477l2.422,2.423c0.152-0.062,0.313-0.099,0.478-0.108
		c0.646-0.039,1.25-0.311,1.706-0.768l3.73-3.73L20.234,5.998z"/>
  </symbol>
  <symbol id="cafe" viewBox="0 0 24 24">
	<path d="M9.306,6.513C8.904,6.111,8.728,5.914,8.728,5.454s0.177-0.656,0.578-1.058c0.319-0.318,0.319-0.837,0-1.157
		c-0.319-0.319-0.837-0.319-1.157,0C7.702,3.686,7.091,4.298,7.091,5.454c0,1.157,0.611,1.769,1.058,2.215
		c0.401,0.4,0.579,0.599,0.579,1.059c0,0.451,0.366,0.817,0.818,0.817c0.451,0,0.817-0.366,0.817-0.817
		C10.363,7.57,9.752,6.959,9.306,6.513z M13.124,6.513c-0.401-0.401-0.579-0.599-0.578-1.059c-0.001-0.46,0.177-0.656,0.578-1.058
		c0.319-0.318,0.319-0.837,0-1.157c-0.319-0.319-0.838-0.319-1.157,0c-0.446,0.446-1.058,1.059-1.058,2.215
		c0,1.157,0.611,1.769,1.058,2.215c0.401,0.4,0.579,0.599,0.579,1.059c0,0.451,0.366,0.817,0.817,0.817s0.818-0.366,0.818-0.817
		C14.182,7.57,13.57,6.959,13.124,6.513z M16.408,17.182h0.773h0.002c1.652,0,2.998-1.347,2.998-3c0-1.654-1.347-3-3-3H16.09H5.182
		c-0.452,0-0.818,0.366-0.818,0.818v2.729c0,1.833,0.792,3.487,2.053,4.636h-1.78c-0.452,0-0.818,0.366-0.818,0.817
		C3.819,20.634,4.186,21,4.637,21h6h6c0.451,0,0.817-0.366,0.817-0.818c0-0.451-0.366-0.817-0.817-0.817h-1.779
		C15.52,18.76,16.052,18.018,16.408,17.182z M16.909,14.729v-1.91h0.272c0.752,0,1.363,0.611,1.363,1.363s-0.611,1.364-1.363,1.364
		H17.18h-0.324C16.891,15.277,16.909,15.005,16.909,14.729z"/>
  </symbol>
  <symbol id="pet-hospital" viewBox="0 0 24 24">
	<path d="M14.824,21H9.176c-0.291,0-0.527-0.236-0.527-0.527v-5.121H3.528C3.237,15.352,3,15.115,3,14.824V9.176
		c0-0.291,0.236-0.527,0.527-0.527h5.121V3.527C8.649,3.236,8.885,3,9.176,3h5.648c0.291,0,0.527,0.236,0.527,0.527v5.121h5.121
		C20.764,8.648,21,8.885,21,9.176v5.648c0,0.291-0.236,0.527-0.527,0.527h-5.121v5.121C15.352,20.764,15.115,21,14.824,21z"/>
  </symbol>
  <symbol id="walking" viewBox="0 0 24 24">
	<path d="M18.482,9.57c-0.558-0.524-0.744-1.138-1.369-1.583c-0.108-0.078-0.219-0.156-0.336-0.222
		c-0.068-0.04-0.092-0.084-0.084-0.162c0.027-0.258,0.054-0.517,0.074-0.775c0.037-0.464-0.099-0.885-0.47-1.159
		c-0.149-0.11-0.887-0.467-1.208,0.755c-0.07,0.266-0.165,0.53-0.291,0.772c-0.463,0.891-1.052,1.704-1.615,2.533
		c-0.257,0.378-0.514,0.756-0.77,1.133l3.941,2.243c0,0,0.758-0.83,0.864-0.782c0.149,0.065,0.298,0.129,0.444,0.192
		c0.436,0.188,0.888,0.276,1.361,0.248c0.807-0.047,1.646-0.474,1.721-1.439C20.82,10.439,18.672,9.748,18.482,9.57z M6.43,11.401
		l-1.716-1.377c-0.387-0.313-0.955-0.25-1.267,0.138c-0.313,0.388-0.25,0.956,0.138,1.267l1.75,1.407v3.822
		c0,0.021,0.003,0.042,0.006,0.063L3.8,19.682c-0.229,0.441-0.057,0.985,0.385,1.215C4.317,20.967,4.459,21,4.6,21
		c0.325,0,0.64-0.177,0.8-0.484l1.551-2.98l1.736,3.014C8.853,20.838,9.156,21,9.468,21c0.153,0,0.307-0.039,0.449-0.12
		c0.431-0.249,0.58-0.8,0.331-1.231L8.734,17.02h5.609v3.077c0,0.499,0.403,0.902,0.901,0.902c0.497,0,0.9-0.403,0.9-0.902v-3.372
		c0.004-0.021,0.006-0.043,0.006-0.065v-2.851l-4.197-2.407L6.43,11.401L6.43,11.401z M12.028,10.587c0,0-0.238,0.452-0.352,0.49
		c-0.112,0.037-4.763-2.109-7.303-7.794L5.013,3C5.013,3,7.052,8.178,12.028,10.587z"/>
  </symbol>
  <symbol id="pet-cafe" viewBox="0 0 24 24">
	<path d="M12,3c-4.97,0-9,4.03-9,9c0,4.971,4.03,9,9,9c4.973,0,9-4.03,9-9C21,7.03,16.971,3,12,3z M19.634,12
		c0,0.596-0.075,1.171-0.204,1.728c-0.816-1.82-2.83-4.89-7.25-5.446c0.181-0.396,0.218-0.797,0.051-1.139
		c-0.077-0.155-0.196-0.279-0.333-0.385c1.222-0.992,2.894-1.262,3.973-1.325C18.118,6.761,19.634,9.204,19.634,12z M9.974,4.648
		c-0.141,0.6-0.108,1.347-0.047,1.906C9.733,6.611,9.537,6.68,9.343,6.775c-0.244,0.12-0.46,0.266-0.655,0.422
		C7.586,6.939,6.723,7.003,6.053,7.226C7.044,5.994,8.409,5.08,9.974,4.648z M5.206,15.464c0.498-2.691,2.079-4.606,3.2-5.666
		c0.333,0.17,0.762,0.231,1.229,0.177c-0.425,2.524-0.562,7.129,3.32,9.59c-0.313,0.039-0.631,0.067-0.956,0.067
		C9.038,19.635,6.47,17.935,5.206,15.464z"/>
  </symbol>
  <symbol id="large-dog" viewBox="0 0 24 24">
    <path d="M17.855,14.263c-0.099-0.246-0.379-0.365-0.625-0.266c-0.246,0.099-0.364,0.378-0.266,0.624
		c0.195,0.483,0.349,0.949,0.423,1.349c0.074,0.403,0.051,0.661-0.012,0.803c-0.013,0.007-0.042,0.018-0.1,0.025
		c-0.132,0.019-0.323,0.006-0.55-0.041c-0.221-0.046-0.445-0.117-0.629-0.191c-0.092-0.037-0.17-0.073-0.229-0.105
		c-0.005-0.002-0.009-0.005-0.013-0.007l-0.179-1.432c-0.033-0.263-0.273-0.449-0.536-0.416c-0.263,0.032-0.449,0.272-0.417,0.535
		l0.332,2.65c0.149,1.194-0.782,2.249-1.985,2.249h-1.829v-0.997c0.333-0.053,0.642-0.159,0.898-0.313
		c0.366-0.22,0.702-0.59,0.702-1.09s-0.335-0.87-0.702-1.09c-0.376-0.226-0.864-0.35-1.378-0.35s-1.002,0.124-1.378,0.35
		c-0.366,0.22-0.701,0.59-0.701,1.09s0.334,0.87,0.701,1.09c0.257,0.153,0.565,0.26,0.898,0.313v0.997H8.316
		c-1.152,0-2.055-0.991-1.948-2.139l0.072-0.767C6.45,17.091,6.454,17.045,6.452,17l0.247-2.629
		c0.158-1.682,1.347-3.038,2.907-3.466c0.256-0.07,0.406-0.334,0.336-0.59s-0.334-0.406-0.59-0.336
		c-0.895,0.246-1.691,0.737-2.309,1.401c-0.011-0.005-0.021-0.01-0.033-0.014c-0.006-0.002-0.013-0.005-0.02-0.007
		c-0.583-0.194-1.109-0.164-1.561,0.098c-0.428,0.248-0.721,0.666-0.939,1.103l-0.005,0.01c-0.317,0.635-0.768,1.536-1.078,2.403
		c-0.156,0.436-0.282,0.881-0.336,1.294c-0.052,0.402-0.043,0.835,0.14,1.201C3.392,17.83,3.746,17.96,4.03,18
		c0.286,0.041,0.6,0.006,0.877-0.051c0.173-0.036,0.345-0.083,0.506-0.136C5.252,19.523,6.598,21,8.316,21h4.752
		c1.781,0,3.158-1.561,2.938-3.327l-0.015-0.124c0.17,0.057,0.354,0.109,0.541,0.147c0.277,0.058,0.591,0.092,0.877,0.052
		c0.282-0.04,0.637-0.17,0.817-0.533c0.213-0.425,0.192-0.947,0.104-1.42C18.24,15.305,18.06,14.771,17.855,14.263z M5.743,14.282
		l-0.23,2.46c-0.049,0.024-0.106,0.049-0.171,0.075c-0.185,0.075-0.409,0.146-0.629,0.191c-0.227,0.047-0.418,0.06-0.55,0.041
		c-0.058-0.008-0.087-0.019-0.1-0.025c-0.052-0.117-0.08-0.32-0.039-0.634c0.041-0.317,0.144-0.691,0.289-1.095
		c0.288-0.808,0.715-1.662,1.037-2.306c0.184-0.368,0.371-0.591,0.563-0.701c0.124-0.072,0.284-0.116,0.511-0.083
		C6.054,12.82,5.815,13.524,5.743,14.282z"/>
	<path d="M15.525,3c-3,0-5.431,2.431-5.431,5.431c0,3,2.432,5.431,5.431,5.431s5.431-2.432,5.431-5.431
		C20.956,5.431,18.524,3,15.525,3z M15.507,9.901c-0.303,0.089-0.664,0.163-1.083,0.22c-0.417,0.058-0.836,0.086-1.254,0.086h-0.729
		V5.385h2.618v0.831h-1.646v3.16h0.031c0.345,0,0.693-0.026,1.043-0.079c0.35-0.052,0.69-0.12,1.02-0.204V9.901z M18.267,12.042
		H17.31V8.2h-0.611v3.662H15.75V4.852h0.949v2.517h0.611V4.773h0.957V12.042z"/>
  </symbol>
  <symbol id="medium-dog" viewBox="0 0 24 24">
    <path d="M17.855,14.263c-0.099-0.246-0.379-0.365-0.625-0.266c-0.246,0.099-0.364,0.378-0.266,0.624
		c0.195,0.483,0.349,0.949,0.423,1.349c0.074,0.403,0.051,0.661-0.012,0.803c-0.013,0.007-0.042,0.018-0.1,0.025
		c-0.132,0.019-0.323,0.006-0.55-0.041c-0.221-0.046-0.445-0.117-0.629-0.191c-0.092-0.037-0.17-0.073-0.229-0.105
		c-0.005-0.002-0.009-0.005-0.013-0.007l-0.179-1.432c-0.033-0.263-0.273-0.449-0.536-0.416c-0.263,0.032-0.449,0.272-0.417,0.535
		l0.332,2.65c0.149,1.194-0.782,2.249-1.985,2.249h-1.829v-0.997c0.333-0.053,0.642-0.159,0.898-0.313
		c0.366-0.22,0.702-0.59,0.702-1.09s-0.335-0.87-0.702-1.09c-0.376-0.226-0.864-0.35-1.378-0.35s-1.002,0.124-1.378,0.35
		c-0.366,0.22-0.701,0.59-0.701,1.09s0.334,0.87,0.701,1.09c0.257,0.153,0.565,0.26,0.898,0.313v0.997H8.316
		c-1.152,0-2.055-0.991-1.948-2.139l0.072-0.767C6.45,17.091,6.454,17.045,6.452,17l0.247-2.629
		c0.158-1.682,1.347-3.038,2.907-3.466c0.256-0.07,0.406-0.334,0.336-0.59s-0.334-0.406-0.59-0.336
		c-0.895,0.246-1.691,0.737-2.309,1.401c-0.011-0.005-0.021-0.01-0.033-0.014c-0.006-0.002-0.013-0.005-0.02-0.007
		c-0.583-0.194-1.109-0.164-1.561,0.098c-0.428,0.248-0.721,0.666-0.939,1.103l-0.005,0.01c-0.317,0.635-0.768,1.536-1.078,2.403
		c-0.156,0.436-0.282,0.881-0.336,1.294c-0.052,0.402-0.043,0.835,0.14,1.201C3.392,17.83,3.746,17.96,4.03,18
		c0.286,0.041,0.6,0.006,0.877-0.051c0.173-0.036,0.345-0.083,0.506-0.136C5.252,19.523,6.598,21,8.316,21h4.752
		c1.781,0,3.158-1.561,2.938-3.327l-0.015-0.124c0.17,0.057,0.354,0.109,0.541,0.147c0.277,0.058,0.591,0.092,0.877,0.052
		c0.282-0.04,0.637-0.17,0.817-0.533c0.213-0.425,0.192-0.947,0.104-1.42C18.24,15.305,18.06,14.771,17.855,14.263z M4.713,17.008
		c-0.227,0.047-0.418,0.06-0.55,0.041c-0.058-0.008-0.087-0.019-0.1-0.025c-0.052-0.117-0.08-0.32-0.039-0.634
		c0.041-0.317,0.144-0.691,0.289-1.095c0.288-0.808,0.715-1.662,1.037-2.306c0.184-0.368,0.371-0.591,0.563-0.701
		c0.124-0.072,0.284-0.116,0.511-0.083c-0.369,0.615-0.608,1.32-0.68,2.077l-0.23,2.46c-0.049,0.024-0.106,0.049-0.171,0.075
		C5.157,16.892,4.933,16.963,4.713,17.008z"/>
	<path d="M14.331,10.266c-0.115,0.06-0.198,0.128-0.247,0.203c-0.05,0.076-0.074,0.153-0.074,0.231c0,0.084,0.024,0.164,0.074,0.24
		c0.049,0.075,0.132,0.143,0.247,0.204c0.115,0.06,0.267,0.108,0.455,0.145c0.188,0.037,0.42,0.055,0.698,0.055
		c0.277,0,0.51-0.019,0.698-0.055s0.339-0.085,0.455-0.145c0.115-0.061,0.197-0.128,0.247-0.204c0.049-0.076,0.074-0.156,0.074-0.24
		c0-0.078-0.025-0.155-0.074-0.231c-0.05-0.075-0.132-0.143-0.247-0.203c-0.115-0.061-0.267-0.107-0.455-0.142
		s-0.421-0.051-0.698-0.051c-0.277,0-0.51,0.017-0.698,0.051C14.597,10.159,14.446,10.206,14.331,10.266z"/>
	<path d="M15.525,3c-3,0-5.431,2.431-5.431,5.431c0,3,2.432,5.431,5.431,5.431s5.431-2.432,5.431-5.431
		C20.956,5.431,18.524,3,15.525,3z M15.362,5.742c-0.274,0.008-0.553,0.012-0.835,0.012h-1.372V4.978h2.399c0.313,0,0.62,0,0.917,0
		s0.617-0.005,0.956-0.016c0.172,0,0.228,0.097,0.165,0.29c-0.073,0.22-0.203,0.43-0.392,0.631s-0.423,0.393-0.706,0.576
		c0.308,0.11,0.632,0.204,0.972,0.282c0.339,0.078,0.69,0.144,1.05,0.196l-0.336,0.698c-0.45-0.083-0.881-0.184-1.294-0.302
		c-0.413-0.118-0.813-0.265-1.2-0.443c-0.392,0.172-0.821,0.324-1.286,0.455c-0.466,0.131-0.957,0.233-1.474,0.306l-0.361-0.71
		c0.518-0.067,0.979-0.149,1.384-0.248s0.758-0.203,1.059-0.313c0.301-0.111,0.549-0.223,0.745-0.337
		c0.196-0.113,0.344-0.22,0.443-0.32V5.715C15.914,5.725,15.636,5.734,15.362,5.742z M18.917,8.717h-2.963v0.627
		c0.664,0.047,1.167,0.191,1.509,0.431c0.342,0.241,0.514,0.549,0.514,0.925c0,0.418-0.213,0.755-0.639,1.012
		c-0.426,0.256-1.044,0.384-1.854,0.384c-0.821,0-1.442-0.128-1.862-0.384c-0.421-0.256-0.631-0.593-0.631-1.012
		c0-0.371,0.168-0.675,0.506-0.914c0.337-0.237,0.828-0.382,1.47-0.435V8.717H12.05V7.925h6.868V8.717z"/>
  </symbol>
  <symbol id="small-dog" viewBox="0 0 24 24">
    <path d="M17.855,14.263c-0.099-0.246-0.379-0.365-0.625-0.266c-0.246,0.099-0.364,0.378-0.266,0.624
		c0.195,0.483,0.349,0.949,0.423,1.349c0.074,0.403,0.051,0.661-0.012,0.803c-0.013,0.007-0.042,0.018-0.1,0.025
		c-0.132,0.019-0.323,0.006-0.55-0.041c-0.221-0.046-0.445-0.117-0.629-0.191c-0.092-0.037-0.17-0.073-0.229-0.105
		c-0.005-0.002-0.009-0.005-0.013-0.007l-0.179-1.432c-0.033-0.263-0.273-0.449-0.536-0.416c-0.263,0.032-0.449,0.272-0.417,0.535
		l0.332,2.65c0.149,1.194-0.782,2.249-1.985,2.249h-1.829v-0.997c0.333-0.053,0.642-0.159,0.898-0.313
		c0.366-0.22,0.702-0.59,0.702-1.09s-0.335-0.87-0.702-1.09c-0.376-0.226-0.864-0.35-1.378-0.35s-1.002,0.124-1.378,0.35
		c-0.366,0.22-0.701,0.59-0.701,1.09s0.334,0.87,0.701,1.09c0.257,0.153,0.565,0.26,0.898,0.313v0.997H8.316
		c-1.152,0-2.055-0.991-1.948-2.139l0.072-0.767C6.45,17.091,6.454,17.045,6.452,17l0.247-2.629
		c0.158-1.682,1.347-3.038,2.907-3.466c0.256-0.07,0.406-0.334,0.336-0.59s-0.334-0.406-0.59-0.336
		c-0.895,0.246-1.691,0.737-2.309,1.401c-0.011-0.005-0.021-0.01-0.033-0.014c-0.006-0.002-0.013-0.005-0.02-0.007
		c-0.583-0.194-1.109-0.164-1.561,0.098c-0.428,0.248-0.721,0.666-0.939,1.103l-0.005,0.01c-0.317,0.635-0.768,1.536-1.078,2.403
		c-0.156,0.436-0.282,0.881-0.336,1.294c-0.052,0.402-0.043,0.835,0.14,1.201C3.392,17.83,3.746,17.96,4.03,18
		c0.286,0.041,0.6,0.006,0.877-0.051c0.173-0.036,0.345-0.083,0.506-0.136C5.252,19.523,6.598,21,8.316,21h4.752
		c1.781,0,3.158-1.561,2.938-3.327l-0.015-0.124c0.17,0.057,0.354,0.109,0.541,0.147c0.277,0.058,0.591,0.092,0.877,0.052
		c0.282-0.04,0.637-0.17,0.817-0.533c0.213-0.425,0.192-0.947,0.104-1.42C18.24,15.305,18.06,14.771,17.855,14.263z M4.713,17.008
		c-0.227,0.047-0.418,0.06-0.55,0.041c-0.058-0.008-0.087-0.019-0.1-0.025c-0.052-0.117-0.08-0.32-0.039-0.634
		c0.041-0.317,0.144-0.691,0.289-1.095c0.288-0.808,0.715-1.662,1.037-2.306c0.184-0.368,0.371-0.591,0.563-0.701
		c0.124-0.072,0.284-0.116,0.511-0.083c-0.369,0.615-0.608,1.32-0.68,2.077l-0.23,2.46c-0.049,0.024-0.106,0.049-0.171,0.075
		C5.157,16.892,4.933,16.963,4.713,17.008z"/>
	<path d="M15.525,3c-3,0-5.431,2.431-5.431,5.431c0,3,2.432,5.431,5.431,5.431s5.431-2.432,5.431-5.431
		C20.956,5.431,18.524,3,15.525,3z M13.586,7.827c0.324-0.19,0.594-0.414,0.812-0.67c0.217-0.256,0.38-0.551,0.49-0.886
		c0.11-0.334,0.159-0.721,0.149-1.16h0.972c0.01,0.193,0.006,0.38-0.011,0.561c-0.019,0.18-0.049,0.354-0.091,0.521
		c0.309,0.533,0.675,0.976,1.098,1.329c0.423,0.353,0.938,0.626,1.545,0.819l-0.541,0.737c-0.518-0.173-0.985-0.429-1.404-0.769
		c-0.418-0.339-0.776-0.737-1.074-1.192c-0.267,0.455-0.617,0.846-1.051,1.172s-0.907,0.582-1.419,0.765l-0.588-0.722
		C12.891,8.187,13.262,8.018,13.586,7.827z M18.847,11.022H12.12v-0.808h2.862V8.733h0.996v1.482h2.87V11.022z"/>
  </symbol>
  <symbol id="dog-menu" viewBox="0 0 24 24">
	<path d="M21.266,13.211c0,0-1.056-4.618-1.074-4.654c-0.221-0.688-1.1-1.24-2.621-1.645C16.075,6.515,14.097,6.295,12,6.295
		s-4.074,0.22-5.57,0.616C4.908,7.316,4.03,7.868,3.81,8.557c-0.018,0.038-1.074,4.654-1.074,4.654C2.308,13.36,2,13.765,2,14.244
		c0,1.209,1.151,2.127,3.421,2.729c1.771,0.472,4.107,0.731,6.579,0.731l0,0c2.472,0,4.807-0.258,6.578-0.729
		C20.849,16.371,22,15.453,22,14.244C22,13.765,21.694,13.36,21.266,13.211z M15.604,14.172c0,0.514-0.418,0.932-0.932,0.932
		c-0.5,0-0.908-0.393-0.932-0.887h-3.481c-0.023,0.494-0.432,0.887-0.931,0.887c-0.514,0-0.933-0.418-0.933-0.932
		c0-0.242,0.093-0.465,0.248-0.631c-0.154-0.165-0.248-0.388-0.248-0.632c0-0.513,0.417-0.932,0.933-0.932
		c0.499,0,0.908,0.394,0.931,0.886h3.481c0.023-0.492,0.432-0.886,0.932-0.886c0.513,0,0.932,0.418,0.932,0.932
		c0,0.244-0.094,0.467-0.248,0.632C15.51,13.707,15.604,13.927,15.604,14.172z M17.141,9.72c-1.385,0.35-3.211,0.543-5.141,0.543
		c-1.929,0-3.755-0.193-5.141-0.543C5.525,9.383,5.057,9.012,4.941,8.859c0.117-0.155,0.586-0.525,1.918-0.863
		C8.246,7.646,10.071,7.454,12,7.454c1.93,0,3.754,0.192,5.141,0.543c1.328,0.337,1.8,0.706,1.917,0.862
		C18.941,9.015,18.472,9.383,17.141,9.72z"/>
  </symbol>
  <symbol id="dog-indoor" viewBox="0 0 24 24">
	<path d="M18.994,4.11h-3.739l4.296,3.906v-3.35C19.551,4.36,19.302,4.11,18.994,4.11z"/>
	<path d="M21.153,10.995l-8.499-7.741c-0.375-0.339-0.936-0.339-1.309,0l-8.497,7.742c-0.299,0.272-0.398,0.691-0.252,1.068
		c0.148,0.377,0.503,0.622,0.905,0.622h1.357v7.757c0,0.306,0.25,0.557,0.557,0.557h13.165c0.309,0,0.557-0.251,0.557-0.557v-7.757
		h1.358c0.405,0,0.759-0.244,0.906-0.622C21.549,11.688,21.451,11.269,21.153,10.995z M12.64,11.508
		c0.125-0.38,0.373-0.697,0.695-0.893c0.338-0.205,0.717-0.253,1.068-0.137c0.35,0.116,0.625,0.382,0.773,0.749
		c0.141,0.35,0.148,0.752,0.023,1.132c-0.221,0.661-0.795,1.09-1.387,1.09c-0.127,0-0.254-0.02-0.379-0.061
		C12.729,13.154,12.372,12.31,12.64,11.508z M10.899,9.63c0.81,0,1.469,0.751,1.469,1.674c0,0.922-0.66,1.673-1.469,1.673
		c-0.811,0-1.469-0.751-1.469-1.673C9.43,10.381,10.088,9.63,10.899,9.63z M7.107,13.423c-0.283-0.735,0.015-1.536,0.662-1.785
		c0.322-0.124,0.679-0.096,1.003,0.081c0.309,0.168,0.552,0.452,0.686,0.799s0.144,0.722,0.027,1.053
		c-0.122,0.349-0.367,0.608-0.69,0.732c-0.132,0.051-0.268,0.075-0.403,0.075C7.859,14.378,7.333,14.008,7.107,13.423z
		 M14.646,17.83c-0.217,0.253-0.504,0.427-0.828,0.501c-0.115,0.025-0.23,0.039-0.346,0.039c-0.211,0-0.42-0.044-0.619-0.131
		c-0.765-0.337-1.643-0.34-2.412-0.009l-0.021,0.009c-0.306,0.134-0.639,0.166-0.964,0.092s-0.611-0.248-0.828-0.501
		c-0.217-0.254-0.343-0.563-0.366-0.896c-0.022-0.332,0.061-0.656,0.24-0.938l1.085-1.691c0.449-0.701,1.216-1.121,2.05-1.121
		c0.833,0,1.6,0.42,2.049,1.121l1.084,1.691c0.182,0.281,0.264,0.605,0.24,0.938C14.989,17.267,14.862,17.576,14.646,17.83z
		 M16.692,15.09c-0.299,0.402-0.744,0.621-1.174,0.621c-0.246,0-0.486-0.071-0.689-0.223c-0.559-0.412-0.631-1.264-0.162-1.896
		c0.467-0.633,1.303-0.812,1.861-0.398S17.159,14.457,16.692,15.09z"/>
  </symbol>
  <symbol id="dog-outdoor" viewBox="0 0 24 24">
	<path d="M12,7.492c-2.486,0-4.508,2.022-4.508,4.509c0,2.486,2.022,4.508,4.508,4.508s4.508-2.022,4.508-4.508
		C16.508,9.514,14.486,7.492,12,7.492z"/>
	<path d="M12,6.167c0.485,0,0.88-0.394,0.88-0.879V3.88C12.88,3.394,12.486,3,12,3s-0.88,0.394-0.88,0.88v1.407
		C11.12,5.772,11.514,6.167,12,6.167z"/>
	<path d="M12,17.833c-0.486,0-0.88,0.394-0.88,0.88v1.407c0,0.486,0.394,0.88,0.88,0.88s0.88-0.394,0.88-0.88v-1.407
		C12.88,18.227,12.485,17.833,12,17.833z"/>
	<path d="M17.368,7.875l0.996-0.995c0.344-0.343,0.344-0.9,0-1.244c-0.344-0.343-0.901-0.343-1.244,0l-0.995,0.995
		c-0.343,0.344-0.343,0.901,0,1.244C16.468,8.219,17.025,8.219,17.368,7.875z"/>
	<path d="M6.631,16.125L5.636,17.12c-0.343,0.343-0.344,0.901,0,1.244s0.901,0.343,1.244,0l0.995-0.996
		c0.344-0.343,0.344-0.9,0-1.243C7.532,15.781,6.975,15.781,6.631,16.125z"/>
	<path d="M20.12,11.12h-1.407c-0.486,0-0.88,0.394-0.88,0.88s0.394,0.879,0.88,0.879h1.407c0.486,0,0.88-0.394,0.88-0.879
		S20.606,11.12,20.12,11.12z"/>
	<path d="M6.167,12c0-0.486-0.394-0.88-0.88-0.88H3.88C3.394,11.12,3,11.514,3,12s0.394,0.879,0.88,0.879h1.407
		C5.772,12.879,6.167,12.486,6.167,12z"/>
	<path d="M17.368,16.125c-0.343-0.343-0.9-0.343-1.244,0c-0.343,0.343-0.343,0.9,0,1.244l0.995,0.996c0.344,0.343,0.9,0.343,1.244,0
		s0.344-0.901,0-1.244L17.368,16.125z"/>
	<path d="M6.631,7.875c0.344,0.344,0.901,0.344,1.244,0c0.344-0.343,0.344-0.9,0-1.244L6.88,5.636c-0.344-0.344-0.9-0.344-1.244,0
		c-0.344,0.343-0.344,0.9,0,1.244L6.631,7.875z"/>
  </symbol>
  <symbol id="parking" viewBox="0 0 24 24">
	<path d="m12.5 3h-7v18h4v-6h3c3.315 0 6-2.685 6-6s-2.685-6-6-6zm.2 8h-3.2v-4h3.2c1.104 0 2 .895 2 2s-.895 2-2 2z" />
  </symbol>
  <symbol id="site" viewBox="0 0 24 24">
	<path d="M15.787,7.972c-1.026,0.214-2.126,0.342-3.259,0.372v3.129h3.709C16.202,10.24,16.049,9.055,15.787,7.972z"/>
	<path d="M6.708,11.473c0.035-1.316,0.2-2.585,0.482-3.75c-0.924-0.26-1.77-0.594-2.502-0.998C3.683,8.11,3.1,9.745,3,11.473H6.708z
		"/>
	<path d="M6.708,12.527H3c0.1,1.728,0.683,3.363,1.688,4.749c0.733-0.404,1.578-0.738,2.502-0.998
		C6.908,15.113,6.743,13.843,6.708,12.527z"/>
	<path d="M13.517,3.609c-0.322-0.272-0.653-0.457-0.989-0.551v4.229c1.036-0.029,2.038-0.142,2.972-0.332
		c-0.171-0.524-0.371-1.016-0.597-1.468C14.496,4.676,14.03,4.044,13.517,3.609z"/>
	<path d="M7.473,17.292c-0.772,0.217-1.481,0.49-2.105,0.815c0.084,0.091,0.169,0.18,0.257,0.268
		c1.014,1.014,2.227,1.756,3.551,2.191c-0.371-0.438-0.713-0.968-1.021-1.583C7.894,18.463,7.667,17.896,7.473,17.292z"/>
	<path d="M9.098,5.488C8.872,5.94,8.673,6.432,8.501,6.956c0.934,0.19,1.936,0.303,2.972,0.332V3.059
		c-0.336,0.094-0.667,0.278-0.989,0.551C9.97,4.044,9.505,4.676,9.098,5.488z"/>
	<path d="M17.292,12.527c-0.035,1.316-0.2,2.585-0.482,3.75c0.924,0.26,1.77,0.594,2.502,0.998c1.004-1.386,1.588-3.021,1.688-4.749
		H17.292z"/>
	<path d="M16.527,6.708c0.772-0.217,1.481-0.49,2.105-0.815c-0.084-0.091-0.169-0.18-0.257-0.268
		c-1.014-1.014-2.227-1.756-3.551-2.191c0.371,0.438,0.713,0.968,1.021,1.583C16.106,5.537,16.334,6.104,16.527,6.708z"/>
	<path d="M14.903,18.512c0.226-0.452,0.425-0.944,0.597-1.468c-0.934-0.19-1.936-0.303-2.972-0.332v4.229
		c0.336-0.094,0.667-0.278,0.989-0.551C14.03,19.956,14.496,19.324,14.903,18.512z"/>
	<path d="M16.81,7.722c0.282,1.165,0.447,2.435,0.482,3.75H21c-0.1-1.728-0.683-3.363-1.688-4.749
		C18.58,7.128,17.735,7.462,16.81,7.722z"/>
	<path d="M12.528,12.527v3.129c1.133,0.03,2.233,0.157,3.259,0.372c0.262-1.083,0.416-2.268,0.45-3.501H12.528z"/>
	<path d="M11.473,11.473V8.343C10.34,8.313,9.24,8.186,8.214,7.972c-0.262,1.083-0.416,2.268-0.45,3.501H11.473z"/>
	<path d="M7.473,6.708c0.193-0.604,0.421-1.171,0.681-1.692c0.308-0.615,0.65-1.145,1.021-1.583
		C7.852,3.869,6.639,4.611,5.625,5.625C5.537,5.713,5.452,5.802,5.368,5.893C5.992,6.218,6.701,6.491,7.473,6.708z"/>
	<path d="M16.527,17.292c-0.193,0.604-0.421,1.171-0.681,1.692c-0.308,0.615-0.65,1.145-1.021,1.583
		c1.324-0.435,2.537-1.177,3.551-2.191c0.088-0.088,0.173-0.177,0.257-0.268C18.009,17.782,17.299,17.509,16.527,17.292z"/>
	<path d="M11.473,12.527H7.763c0.034,1.233,0.188,2.418,0.45,3.501c1.026-0.214,2.126-0.342,3.259-0.372V12.527z"/>
	<path d="M10.484,20.391c0.322,0.272,0.653,0.457,0.989,0.551v-4.229c-1.036,0.029-2.038,0.142-2.972,0.332
		c0.171,0.524,0.371,1.016,0.597,1.468C9.505,19.324,9.97,19.956,10.484,20.391z"/>
  </symbol>
  <symbol id="blog" viewBox="0 0 24 24">
	<path d="M20.886,14.232c-0.006-1.339-0.01-2.306-0.668-3.157c-0.746-0.963-1.896-1.126-2.828-1.154
		c0.157-0.672,0.202-1.419,0.13-2.226c-0.021-2.686-2.019-4.617-4.793-4.694L12.686,3L8.444,3.004H8.398
		c-1.65,0-2.955,0.493-3.877,1.464C3.95,5.069,3.192,6.118,3.112,7.816L3.108,14.66c-0.009,0.129,0.004,0.26,0.003,0.394
		c0,1.947,0.312,3.349,1.285,4.385C5.368,20.475,6.806,21,8.669,21c0.041,0,0.081,0,0.122,0h6.482h0.016
		c1.662-0.014,3.066-0.563,4.061-1.586c0.993-1.021,1.528-2.478,1.546-4.21C20.895,15.203,20.887,14.505,20.886,14.232z
		 M8.788,6.651l3.625-0.004c0.854,0.014,1.536,0.779,1.522,1.633c-0.013,0.846-0.704,1.463-1.546,1.463
		c-0.008,0-3.65,0.001-3.65,0.001C7.884,9.731,7.203,9.028,7.217,8.173C7.23,7.319,7.932,6.643,8.788,6.651z M15.602,16.834h-7.25
		c-0.854,0-1.547-0.692-1.547-1.547c0-0.855,0.693-1.547,1.547-1.547h7.25c0.854,0,1.547,0.692,1.547,1.547
		C17.149,16.142,16.456,16.834,15.602,16.834z"/>
  </symbol>
  <symbol id="facebook" viewBox="0 0 24 24">
	<path d="M16.5,3.004L14.165,3c-2.622,0-4.317,1.739-4.317,4.43v2.042H7.501c-0.203,0-0.367,0.165-0.367,0.367v2.959
		c0,0.203,0.164,0.367,0.367,0.367h2.347v7.467c0,0.203,0.164,0.367,0.367,0.367h3.062c0.203,0,0.367-0.165,0.367-0.367v-7.467
		h2.744c0.203,0,0.367-0.165,0.367-0.367l0.001-2.959c0-0.097-0.039-0.19-0.108-0.259s-0.163-0.108-0.26-0.108h-2.745V7.741
		c0-0.832,0.198-1.254,1.283-1.254l1.572,0c0.203,0,0.367-0.165,0.367-0.367V3.371C16.866,3.168,16.702,3.004,16.5,3.004z"/>
  </symbol>
  <symbol id="instagram" viewBox="0 0 24 24">
	<path d="M20.946,8.29c-0.044-0.958-0.196-1.612-0.418-2.185c-0.226-0.601-0.58-1.145-1.038-1.594
		c-0.449-0.458-0.994-0.813-1.594-1.039c-0.573-0.222-1.227-0.374-2.185-0.417C14.751,3.011,14.445,3,12,3S9.249,3.011,8.29,3.054
		C7.332,3.098,6.677,3.25,6.105,3.473c-0.6,0.226-1.144,0.58-1.594,1.038C4.053,4.96,3.698,5.504,3.472,6.104
		C3.25,6.677,3.098,7.332,3.054,8.289C3.01,9.249,3,9.556,3,12s0.01,2.751,0.054,3.711c0.044,0.958,0.196,1.612,0.418,2.185
		c0.226,0.6,0.58,1.145,1.038,1.594c0.45,0.458,0.994,0.812,1.594,1.038c0.572,0.223,1.227,0.375,2.185,0.418
		C9.25,20.99,9.556,21,12,21c2.444,0,2.751-0.01,3.711-0.054c0.958-0.044,1.612-0.196,2.185-0.418
		c1.209-0.467,2.165-1.423,2.632-2.632c0.223-0.573,0.375-1.227,0.418-2.185C20.99,14.751,21,14.444,21,12S20.99,9.249,20.946,8.29z
		M19.326,15.637c-0.04,0.878-0.187,1.354-0.31,1.671c-0.303,0.785-0.923,1.405-1.708,1.708c-0.317,0.123-0.794,0.27-1.671,0.31
		c-0.949,0.043-1.233,0.052-3.637,0.052s-2.688-0.009-3.637-0.052c-0.877-0.04-1.354-0.187-1.671-0.31
		c-0.391-0.144-0.745-0.374-1.035-0.673c-0.299-0.29-0.529-0.644-0.673-1.035c-0.123-0.317-0.27-0.793-0.31-1.671
		C4.631,14.688,4.622,14.403,4.622,12c0-2.403,0.009-2.688,0.052-3.637c0.041-0.877,0.187-1.354,0.31-1.671
		c0.145-0.391,0.375-0.745,0.673-1.035c0.29-0.299,0.644-0.529,1.035-0.673c0.317-0.123,0.794-0.27,1.671-0.31
		C9.312,4.631,9.597,4.622,12,4.622l0,0c2.403,0,2.688,0.009,3.637,0.053c0.877,0.04,1.354,0.187,1.671,0.31
		c0.391,0.145,0.744,0.375,1.035,0.673c0.299,0.291,0.529,0.644,0.673,1.035c0.124,0.317,0.27,0.793,0.31,1.671
		c0.043,0.949,0.053,1.234,0.053,3.637C19.379,14.403,19.369,14.688,19.326,15.637z"/>
	<path d="M12,7.378c-2.553,0-4.622,2.069-4.622,4.622S9.448,16.622,12,16.622c2.552,0,4.622-2.069,4.622-4.622
		S14.552,7.378,12,7.378z M12,15c-1.657,0-3-1.343-3-3s1.343-3,3-3s3,1.343,3,3S13.657,15,12,15z"/>
	<path d="M17.885,7.196c0,0.597-0.484,1.08-1.08,1.08c-0.597,0-1.08-0.483-1.08-1.08s0.483-1.08,1.08-1.08
		C17.401,6.116,17.885,6.599,17.885,7.196z"/>
  </symbol>
  <symbol id="kakaotalk" viewBox="0 0 24 24">
	<path d="M12,3.694c-4.971,0-9,3.178-9,7.096c0,2.534,1.685,4.758,4.219,6.014c-0.138,0.476-0.886,3.059-0.916,3.261
		c0,0-0.018,0.153,0.081,0.211c0.1,0.06,0.215,0.015,0.215,0.015c0.283-0.041,3.284-2.147,3.804-2.515
		c0.519,0.073,1.054,0.111,1.599,0.111c4.97,0,9-3.177,9-7.097C21,6.872,16.971,3.694,12,3.694L12,3.694z"/>
  </symbol>
</svg>