<?xml version="1.0" encoding="utf-8"?>
<!-- Generator: Adobe Illustrator 15.1.0, SVG Export Plug-In . SVG Version: 6.00 Build 0)  -->
<!DOCTYPE svg PUBLIC "-//W3C//DTD SVG 1.1//EN" "http://www.w3.org/Graphics/SVG/1.1/DTD/svg11.dtd">
<svg version="1.1" id="Layer_1" xmlns="http://www.w3.org/2000/svg" xmlns:xlink="http://www.w3.org/1999/xlink" x="0px" y="0px"
	 width="273.033px" height="73.314px" viewBox="0 0 273.033 73.314" enable-background="new 0 0 273.033 73.314"
	 xml:space="preserve">
<g>
	<defs>
		<rect id="SVGID_1_" x="-269.047" y="-263.069" width="853.229" height="606.619"/>
	</defs>
	<clipPath id="SVGID_2_">
		<use xlink:href="#SVGID_1_"  overflow="visible"/>
	</clipPath>
	<g clip-path="url(#SVGID_2_)">
		<text transform="matrix(1 0 0 1 19.4468 -35.125)"><tspan x="0" y="0" fill="#3C9413" font-family="'Uni-Sans-Regular'" font-size="43.6999" letter-spacing="1">Travel</tspan><tspan x="123.494" y="0" fill="#044C0C" font-family="'Uni-Sans-Regular'" font-size="43.6999" letter-spacing="1">forest</tspan></text>
	</g>
	<path clip-path="url(#SVGID_2_)" fill="#044C0C" d="M122.353-99c0,0-0.579,25.634,24.658,24.896
		c-0.579-1.727,0.289-12.572-12.472-17.748C129.605-93.579,122.932-97.522,122.353-99"/>
	<g clip-path="url(#SVGID_2_)">
		<path fill="#3C9413" d="M23.555,32.891v3.671h-9.92v27.313H9.964V36.562h-9.92v-3.671H23.555z"/>
		<path fill="#3C9413" d="M34.349,41.194v3.584c-1.617-0.263-2.011-0.438-3.453-0.088c-1.792,0.481-3.496,1.792-3.496,3.89v15.295
			h-3.496V48.58c0-4.064,2.884-6.643,6.468-7.342C31.595,40.932,33.037,40.932,34.349,41.194z"/>
		<path fill="#3C9413" d="M46.409,44.34c-2.01,0-4.107,0.831-5.375,2.447l-2.403-2.315c2.098-2.316,5.2-3.54,8.041-3.54
			c4.326,0,8.565,2.403,8.565,7.298v14.64c-3.146,1.093-6.337,1.573-9.353,1.53c-4.545-0.044-8.084-2.973-8.084-7.823
			c0.043-5.419,4.414-7.298,9.002-7.298c1.748,0,3.496,0.48,4.938,1.311V48.23C51.741,45.608,49.119,44.34,46.409,44.34z
			 M51.741,53.562c-1.398-0.481-3.234-0.918-5.069-0.918c-2.841,0-5.375,0.699-5.419,3.933c0,2.885,2.054,4.677,4.72,4.72
			c1.923,0.044,3.889-0.043,5.769-0.437V53.562z"/>
		<path fill="#3C9413" d="M69.526,60.728h0.262l0.918-4.501l5.244-14.989h3.715l-7.998,22.637h-4.152l-7.997-22.637h3.715
			l5.288,15.033L69.526,60.728z"/>
		<path fill="#3C9413" d="M87.312,56.882c-0.043,2.754,2.579,4.064,5.244,4.064c2.054,0,4.239-1.005,5.157-3.103l3.146,1.573
			c-1.573,3.321-5.026,4.982-8.304,4.982c-4.37,0-8.784-2.491-8.784-7.518v-8.564c0-5.07,4.414-7.518,8.784-7.518
			c4.283,0,8.653,2.447,8.653,7.518v6.074H87.312V56.882z M92.556,44.253c-2.666,0-5.288,1.311-5.244,4.064v3.146h10.576V48.23
			C97.888,45.564,95.134,44.253,92.556,44.253z"/>
		<path fill="#3C9413" d="M115.498,64.05c-4.938,0-7.691-2.754-7.691-7.386V33.328h3.496v23.337c0,2.491,1.312,3.89,4.195,3.89
			V64.05z"/>
		<path fill="#3C9413" d="M128.739,63.875h-4.195l-6.817-22.637h3.627l4.239,14.159l0.83,5.025h0.306l0.612-5.025
			c1.136-4.764,2.316-9.483,3.452-14.159h3.846l3.496,14.159l0.699,5.025h0.306l0.743-5.025l4.239-14.159h3.583l-6.773,22.637
			h-4.195l-3.977-16.432L128.739,63.875z"/>
		<path fill="#3C9413" d="M154.958,33.066c1.398,0,2.448,1.049,2.448,2.447c0,1.354-1.049,2.447-2.448,2.447
			c-1.354,0-2.447-1.093-2.447-2.447C152.511,34.115,153.604,33.066,154.958,33.066z M153.298,41.107v22.768h3.496V41.107H153.298z"
			/>
		<path fill="#3C9413" d="M173.312,63.875c-5.287,0.699-9.264-2.271-9.264-7.342V32.891h3.452v8.347h4.632v3.496H167.5v11.799
			c0,2.579,2.185,5.026,5.812,4.327V63.875z"/>
		<path fill="#3C9413" d="M182.402,33.372v9.177c1.441-0.83,3.452-1.311,5.2-1.311c4.37-0.088,8.696,2.622,8.696,7.517v15.12h-3.452
			V48.71c0-2.666-2.622-3.933-5.2-3.977c-1.792,0-3.496,0.262-5.244,0.961v18.18h-3.496V33.372H182.402z"/>
		<path fill="#044C0C" d="M220.726,62.783c-2.971,1.005-5.986,1.617-8.871,1.617c-4.326-0.088-8.652-2.491-8.652-7.518v-8.478
			c0-4.895,4.369-7.561,8.74-7.561c1.922,0,3.67,0.175,5.287,1.398v-8.958h3.496V62.783z M217.23,60.641V45.389
			c-1.703-0.655-3.583-1.049-5.287-1.049c-2.623,0.044-5.244,1.354-5.201,4.064v8.565c-0.043,2.666,2.535,4.326,5.113,4.326
			C213.603,61.296,215.527,61.166,217.23,60.641z"/>
		<path fill="#044C0C" d="M236.24,40.669c4.326,0.044,8.695,2.535,8.695,7.561v8.521c0,5.069-4.369,7.517-8.695,7.561
			c-4.371-0.044-8.785-2.491-8.785-7.561V48.23C227.455,43.205,231.869,40.713,236.24,40.669z M230.951,48.23v8.521
			c0,2.841,2.754,4.108,5.289,4.108c2.447,0,5.199-1.268,5.199-4.108V48.23c0-2.841-2.752-4.064-5.199-4.064
			C233.705,44.166,230.951,45.389,230.951,48.23z"/>
		<path fill="#044C0C" d="M254.375,66.148c0.961,1.223,3.365,2.185,5.331,2.185c2.71,0,5.419-1.268,5.419-4.064v-1.267
			c-1.486,0.961-3.408,1.18-5.156,1.18c-4.371,0.043-8.697-2.622-8.697-7.517v-8.391c0-4.938,4.239-7.43,8.521-7.43
			c1.879,0,4.152,0.438,6.074,0.962c0.744,0.219,2.012,0.655,2.711,0.83v21.632c0,5.069-4.283,7.298-8.566,7.298
			c-2.928,0-5.943-1.136-7.953-3.32L254.375,66.148z M265.125,45.127c-1.268-0.481-3.321-1.049-5.332-1.049
			c-2.534,0-5.068,1.485-5.025,4.195v8.478c-0.043,2.622,2.535,4.064,5.113,4.152c1.791-0.044,3.496-0.35,5.244-1.006V45.127z"/>
	</g>
	<path clip-path="url(#SVGID_2_)" fill="#044C0C" d="M122.353,0c0,0-0.579,25.634,24.658,24.896
		c-0.579-1.727,0.289-12.572-12.472-17.748C129.605,5.421,122.932,1.478,122.353,0"/>
</g>
</svg>
